<svg width="177" height="22" viewBox="0 0 177 22" fill="none" xmlns="http://www.w3.org/2000/svg">
<path d="M7.41562 21.2443C5.89538 21.2443 4.58327 20.9457 3.47928 20.3485C2.3934 19.7331 1.56993 18.9459 1.00889 17.9867C0.447849 17.0275 0.167328 16.014 0.167328 14.9462V14.7833H4.2937V14.9462C4.2937 15.3986 4.40229 15.8601 4.61946 16.3307C4.85474 16.7831 5.20765 17.1632 5.6782 17.4709C6.16685 17.7785 6.76409 17.9324 7.46992 17.9324C8.35672 17.9324 9.0716 17.7061 9.61454 17.2537C10.1756 16.8012 10.4561 16.195 10.4561 15.4348C10.4561 14.7833 10.2208 14.2675 9.75028 13.8874C9.29783 13.4893 8.73679 13.2269 8.06716 13.1002L5.75965 12.6115C4.56517 12.3762 3.41594 11.8695 2.31195 11.0913C1.20797 10.295 0.655977 9.00095 0.655977 7.20924C0.655977 6.05096 0.936498 5.05556 1.49754 4.22305C2.05858 3.37244 2.8368 2.72995 3.8322 2.2956C4.82759 1.84315 5.95872 1.61692 7.22559 1.61692C8.67344 1.61692 9.91316 1.89744 10.9448 2.45848C11.9944 3.01952 12.7817 3.74345 13.3066 4.63026C13.8495 5.51706 14.121 6.45817 14.121 7.45356V7.56215H9.9946V7.48071C9.9946 6.82918 9.75933 6.22289 9.28878 5.66185C8.83632 5.08271 8.10335 4.79314 7.08986 4.79314C6.25734 4.79314 5.60581 5.01937 5.13526 5.47182C4.66471 5.90617 4.42943 6.46721 4.42943 7.15494C4.42943 7.80647 4.66471 8.32227 5.13526 8.70233C5.62391 9.08239 6.22115 9.34481 6.92697 9.4896L9.20734 9.97825C10.6009 10.2859 11.8135 10.856 12.8451 11.6885C13.8766 12.521 14.3924 13.7427 14.3924 15.3534C14.3924 16.5117 14.0938 17.5433 13.4966 18.4482C12.8994 19.335 12.0668 20.0227 10.999 20.5114C9.94936 21 8.75488 21.2443 7.41562 21.2443ZM29.0931 14.1318H24.9667V18.2581H21.7633V14.1318H17.637V10.9284H21.7633V6.80203H24.9667V10.9284H29.0931V14.1318ZM46.1235 1.99698C47.6618 1.99698 48.9196 2.30465 49.8969 2.91999C50.8923 3.53532 51.6072 4.31354 52.0415 5.25464C52.4759 6.19574 52.6931 7.19114 52.6931 8.24083C52.6931 9.29052 52.4759 10.2859 52.0415 11.227C51.6072 12.15 50.9014 12.9192 49.9241 13.5345C48.9468 14.1318 47.6799 14.4304 46.1235 14.4304H41.9428V21H39.6624V1.99698H46.1235ZM45.8248 12.3943C47.1279 12.3943 48.2138 12.0867 49.0825 11.4713C49.9693 10.8379 50.4127 9.76107 50.4127 8.24083C50.4127 6.73869 49.9693 5.67995 49.0825 5.06461C48.2138 4.43118 47.1279 4.11446 45.8248 4.11446H41.9428V12.3943H45.8248ZM55.6195 6.69344H57.9541V8.9738H58.117C58.3523 8.34037 58.7685 7.80648 59.3658 7.37212C59.9811 6.91967 60.7503 6.69344 61.6733 6.69344C61.9628 6.69344 62.1891 6.71154 62.3519 6.74774C62.5329 6.76583 62.732 6.81108 62.9492 6.88347L62.8677 9.16383C62.5782 9.07334 62.3248 9.01 62.1076 8.9738C61.9085 8.93761 61.6461 8.91951 61.3204 8.91951C59.0762 8.91951 57.9541 10.2497 57.9541 12.9101V21H55.6195V6.69344ZM71.1667 21.19C69.7189 21.19 68.4882 20.8462 67.4747 20.1584C66.4793 19.4526 65.7282 18.5387 65.2215 17.4166C64.7147 16.2764 64.4614 15.0548 64.4614 13.7517C64.4614 12.4486 64.7147 11.2361 65.2215 10.114C65.7282 8.9738 66.4793 8.05985 67.4747 7.37212C68.4882 6.66629 69.7189 6.31338 71.1667 6.31338C72.6146 6.31338 73.8362 6.66629 74.8316 7.37212C75.8451 8.05985 76.5962 8.9738 77.0848 10.114C77.5916 11.2542 77.8449 12.4667 77.8449 13.7517C77.8449 15.0367 77.5916 16.2492 77.0848 17.3894C76.5781 18.5296 75.8179 19.4526 74.8044 20.1584C73.809 20.8462 72.5965 21.19 71.1667 21.19ZM71.1667 19.1811C72.0535 19.1811 72.8227 18.9368 73.4742 18.4482C74.1439 17.9595 74.6506 17.308 74.9945 16.4936C75.3383 15.6611 75.5103 14.7381 75.5103 13.7246C75.5103 12.1681 75.1212 10.8741 74.3429 9.84251C73.5647 8.81092 72.506 8.29512 71.1667 8.29512C70.2618 8.29512 69.4745 8.53945 68.8049 9.0281C68.1534 9.51675 67.6557 10.1773 67.3118 11.0098C66.968 11.8243 66.796 12.7292 66.796 13.7246C66.796 15.281 67.1851 16.5841 67.9634 17.6338C68.7416 18.6653 69.8094 19.1811 71.1667 19.1811ZM86.5517 21.19C85.2849 21.19 84.199 20.8643 83.2941 20.2127C82.4073 19.5612 81.7286 18.6744 81.258 17.5523C80.7875 16.4302 80.5522 15.1634 80.5522 13.7517C80.5522 12.322 80.7875 11.046 81.258 9.92395C81.7286 8.80187 82.4163 7.92411 83.3212 7.29068C84.2261 6.63915 85.3211 6.31338 86.606 6.31338C87.8729 6.31338 88.8954 6.62105 89.6737 7.23638C90.47 7.83362 91.0582 8.53945 91.4382 9.35386H91.6554V0.639622H93.9901V21H91.6554V18.0681H91.4382C91.0039 18.9368 90.3885 19.6788 89.5922 20.2942C88.814 20.8914 87.8005 21.19 86.5517 21.19ZM87.2576 19.1811C88.6692 19.1811 89.7461 18.6653 90.4881 17.6338C91.2301 16.5841 91.6011 15.29 91.6011 13.7517C91.6011 12.2134 91.2301 10.9284 90.4881 9.89681C89.7461 8.86521 88.6692 8.34942 87.2576 8.34942C85.8278 8.34942 84.751 8.86521 84.0271 9.89681C83.3031 10.9284 82.9412 12.2134 82.9412 13.7517C82.9412 15.3081 83.3031 16.6022 84.0271 17.6338C84.7691 18.6653 85.8459 19.1811 87.2576 19.1811ZM110.527 21H108.165V18.2853H108.002C107.622 19.1178 107.034 19.8236 106.237 20.4028C105.459 20.9638 104.5 21.2443 103.36 21.2443C102.165 21.2443 101.17 20.9548 100.373 20.3756C99.5772 19.7965 98.989 19.0454 98.6089 18.1224C98.2469 17.1994 98.066 16.195 98.066 15.1091V6.69344H100.401V14.8104C100.401 16.204 100.754 17.2808 101.459 18.041C102.165 18.783 103.088 19.154 104.228 19.154C105.423 19.154 106.373 18.7558 107.079 17.9595C107.803 17.1451 108.165 16.0954 108.165 14.8104V6.69344H110.527V21ZM120.505 21.19C119.021 21.19 117.763 20.8371 116.731 20.1313C115.718 19.4255 114.967 18.5115 114.478 17.3894C113.989 16.2492 113.745 15.0367 113.745 13.7517C113.745 12.4667 113.989 11.2632 114.478 10.1411C114.967 9.00095 115.718 8.07795 116.731 7.37212C117.763 6.66629 119.021 6.31338 120.505 6.31338C122.351 6.31338 123.799 6.84728 124.848 7.91506C125.916 8.98285 126.559 10.295 126.776 11.8514H124.495C124.333 10.8017 123.916 9.9511 123.247 9.29957C122.577 8.62994 121.672 8.29512 120.532 8.29512C119.084 8.29512 117.98 8.81997 117.22 9.86966C116.478 10.9013 116.107 12.1953 116.107 13.7517C116.107 15.3081 116.478 16.6112 117.22 17.6609C117.98 18.6925 119.084 19.2083 120.532 19.2083C121.672 19.2083 122.577 18.8825 123.247 18.231C123.916 17.5795 124.333 16.7198 124.495 15.652H126.776C126.559 17.2084 125.916 18.5206 124.848 19.5883C123.799 20.6561 122.351 21.19 120.505 21.19ZM133.866 8.5666V16.8736C133.866 17.5433 133.893 18.041 133.947 18.3667C134.02 18.6744 134.192 18.9187 134.463 19.0997C134.753 19.2807 135.214 19.3712 135.848 19.3712C136.282 19.3712 136.753 19.3078 137.259 19.1811V20.8643C137.133 20.9186 136.852 20.9729 136.418 21.0271C136.001 21.0814 135.567 21.1086 135.115 21.1086C134.065 21.1086 133.278 20.9638 132.753 20.6742C132.246 20.3666 131.911 19.9594 131.748 19.4526C131.604 18.9278 131.531 18.24 131.531 17.3894V8.5666H128.871V6.69344H131.531V1.99698H133.866V6.69344H137.259V8.5666H133.866ZM140.886 6.69344H143.22V21H140.886V6.69344ZM142.026 4.03302C141.591 4.03302 141.229 3.88823 140.94 3.59866C140.65 3.291 140.505 2.92903 140.505 2.51278C140.505 2.09652 140.65 1.74361 140.94 1.45404C141.229 1.14637 141.591 0.992535 142.026 0.992535C142.46 0.992535 142.822 1.14637 143.112 1.45404C143.419 1.74361 143.573 2.09652 143.573 2.51278C143.573 2.92903 143.419 3.291 143.112 3.59866C142.822 3.88823 142.46 4.03302 142.026 4.03302ZM153.536 21.19C152.088 21.19 150.858 20.8462 149.844 20.1584C148.849 19.4526 148.098 18.5387 147.591 17.4166C147.084 16.2764 146.831 15.0548 146.831 13.7517C146.831 12.4486 147.084 11.2361 147.591 10.114C148.098 8.9738 148.849 8.05985 149.844 7.37212C150.858 6.66629 152.088 6.31338 153.536 6.31338C154.984 6.31338 156.206 6.66629 157.201 7.37212C158.214 8.05985 158.966 8.9738 159.454 10.114C159.961 11.2542 160.214 12.4667 160.214 13.7517C160.214 15.0367 159.961 16.2492 159.454 17.3894C158.947 18.5296 158.187 19.4526 157.174 20.1584C156.178 20.8462 154.966 21.19 153.536 21.19ZM153.536 19.1811C154.423 19.1811 155.192 18.9368 155.844 18.4482C156.513 17.9595 157.02 17.308 157.364 16.4936C157.708 15.6611 157.88 14.7381 157.88 13.7246C157.88 12.1681 157.491 10.8741 156.712 9.84251C155.934 8.81092 154.875 8.29512 153.536 8.29512C152.631 8.29512 151.844 8.53945 151.174 9.0281C150.523 9.51675 150.025 10.1773 149.681 11.0098C149.337 11.8243 149.165 12.7292 149.165 13.7246C149.165 15.281 149.555 16.5841 150.333 17.6338C151.111 18.6653 152.179 19.1811 153.536 19.1811ZM163.627 6.69344H165.962V9.27242H166.179C166.541 8.43991 167.129 7.74313 167.944 7.18209C168.758 6.60295 169.754 6.31338 170.93 6.31338C172.143 6.31338 173.156 6.60295 173.971 7.18209C174.785 7.74313 175.382 8.4942 175.762 9.43531C176.16 10.3583 176.359 11.3628 176.359 12.4486V21H174.025V12.7473C174.025 11.3356 173.654 10.2588 172.912 9.51675C172.188 8.77472 171.238 8.40371 170.061 8.40371C168.813 8.40371 167.817 8.81092 167.075 9.62534C166.333 10.4217 165.962 11.4623 165.962 12.7473V21H163.627V6.69344Z" fill="black"/>
</svg>
